<svg xmlns="http://www.w3.org/2000/svg" viewBox="0 0 512 512"><path d="M0 256C0 114.71 114.71 0 256 0c141.29 0 256 114.71 256 256 0 141.29-114.71 256-256 256C114.71 512 0 397.29 0 256z" fill="#fff"/><path d="M505.625 312.967a253.535 253.535 0 0 1-13.756 42.644 256.663 256.663 0 0 1-54.886 81.372 256.663 256.663 0 0 1-81.372 54.886 253.51 253.51 0 0 1-48.042 14.921A256.2 256.2 0 0 1 256 512a256.2 256.2 0 0 1-51.569-5.21 253.51 253.51 0 0 1-48.042-14.921 256.663 256.663 0 0 1-81.372-54.886 256.663 256.663 0 0 1-54.886-81.372A253.51 253.51 0 0 1 5.21 307.569 256.2 256.2 0 0 1 0 256a256.2 256.2 0 0 1 5.21-51.569 253.51 253.51 0 0 1 14.921-48.042 256.663 256.663 0 0 1 54.886-81.372 256.663 256.663 0 0 1 81.372-54.886A253.51 253.51 0 0 1 204.431 5.21 256.2 256.2 0 0 1 256 0a256.2 256.2 0 0 1 51.569 5.21 253.51 253.51 0 0 1 48.042 14.921 256.663 256.663 0 0 1 81.372 54.886 256.663 256.663 0 0 1 54.886 81.372 253.51 253.51 0 0 1 14.921 48.042A256.2 256.2 0 0 1 512 256a256.2 256.2 0 0 1-6.375 56.967zm-.302-8.176A255.304 255.304 0 0 0 510.008 256a255.273 255.273 0 0 0-5.16-51.17 253.382 253.382 0 0 0-14.812-47.664 254.69 254.69 0 0 0-54.458-80.744 254.69 254.69 0 0 0-80.744-54.458A253.382 253.382 0 0 0 307.17 7.152 255.273 255.273 0 0 0 256 1.992a255.273 255.273 0 0 0-51.17 5.16 253.382 253.382 0 0 0-47.664 14.812 254.69 254.69 0 0 0-80.744 54.458 254.69 254.69 0 0 0-54.458 80.744A253.382 253.382 0 0 0 7.152 204.83 255.273 255.273 0 0 0 1.992 256a255.273 255.273 0 0 0 5.16 51.17 253.382 253.382 0 0 0 14.812 47.664 254.69 254.69 0 0 0 54.458 80.744 254.69 254.69 0 0 0 80.744 54.458 253.382 253.382 0 0 0 47.664 14.812 255.273 255.273 0 0 0 51.17 5.16 255.273 255.273 0 0 0 51.17-5.16 253.382 253.382 0 0 0 47.664-14.812 254.69 254.69 0 0 0 80.744-54.458 254.69 254.69 0 0 0 54.458-80.744 252.996 252.996 0 0 0 13.956-43.68 55.282 55.282 0 0 0-7.505-6.856 72 72 0 0 0-10.078-6.359 100.906 100.906 0 0 0-12.536-5.455 153.341 153.341 0 0 0-3.889-1.322l-.045.094a183.328 183.328 0 0 1-11.598 20.534 210.06 210.06 0 0 1-15.102 20.167l-2.918 3.442-6.632-8.848-34.509-46.035a683.58 683.58 0 0 0-30.995-.664c-8.418.01-16.847.129-25.265.355-9.249.248-18.486.604-27.735 1.057a1880.027 1880.027 0 0 0-63.283 4.236 492.17 492.17 0 0 0-21.428 1.961 752.352 752.352 0 0 0-26.085 3.385 833.565 833.565 0 0 0-18.365 2.898l-43.149 54.04-5.384 6.743-2.459-2.095a699.76 699.76 0 0 1-10.893-9.481 410.488 410.488 0 0 1-10.606-9.765 280.078 280.078 0 0 1-9.949-9.971 183.67 183.67 0 0 1-7.538-8.415 446.5 446.5 0 0 0-10.344 3.468 298.122 298.122 0 0 0-13.118 4.926 242.35 242.35 0 0 0-12.04 5.238 166.764 166.764 0 0 0-10.779 5.551 113.67 113.67 0 0 0-9.292 5.821l-1.212.846-2.226-5.011.366-.254a114.624 114.624 0 0 1 9.723-6.101 169.19 169.19 0 0 1 11.124-5.724 235.17 235.17 0 0 1 12.331-5.368 325.129 325.129 0 0 1 13.344-5.012 432.606 432.606 0 0 1 8.432-2.847l8.869-2.79a444.079 444.079 0 0 1 11.641-3.353 639.568 639.568 0 0 1 30.644-7.62 829.078 829.078 0 0 1 60.093-11.049 742.11 742.11 0 0 1 26.257-3.417 487.229 487.229 0 0 1 21.623-1.972 1889.71 1889.71 0 0 1 63.445-4.258c9.28-.453 18.561-.808 27.852-1.056a995.776 995.776 0 0 1 25.406-.356 695.76 695.76 0 0 1 27.638.517c8.149.313 16.276.83 24.392 1.553a336.782 336.782 0 0 1 21.31 2.587 223.206 223.206 0 0 1 20.332 4.089l9.416 2.707c1.477.475 2.947.973 4.411 1.493a106.782 106.782 0 0 1 13.204 5.745 77.228 77.228 0 0 1 10.855 6.844 57.888 57.888 0 0 1 5.58 4.794zm-45.869-16.627a174.19 174.19 0 0 1-10.125 17.719 202.069 202.069 0 0 1-14.314 19.1l-.612.724-33.827-45.125a476.47 476.47 0 0 1 19.154 1.318 326.297 326.297 0 0 1 20.976 2.543 221.798 221.798 0 0 1 18.748 3.721zm-354.395 23.859a148.813 148.813 0 0 0 4.777 5.253 263.334 263.334 0 0 0 9.647 9.669 397.032 397.032 0 0 0 10.391 9.561c3.479 3.098 7 6.166 10.542 9.182l40.808-51.116a829.532 829.532 0 0 0-36.54 7.258 625.208 625.208 0 0 0-30.397 7.556 404.215 404.215 0 0 0-9.228 2.637z"/><path d="M459.455 288.164a174.388 174.388 0 0 1-10.126 17.719 202.24 202.24 0 0 1-14.314 19.1l-.612.724-33.827-45.125a476.47 476.47 0 0 1 19.154 1.318 326.211 326.211 0 0 1 20.976 2.543 221.798 221.798 0 0 1 18.749 3.721zm-354.396 23.86a149.674 149.674 0 0 0 4.777 5.252 263.334 263.334 0 0 0 9.647 9.669 397.032 397.032 0 0 0 10.391 9.561c3.479 3.098 7 6.166 10.542 9.182l40.808-51.116a829.532 829.532 0 0 0-36.54 7.258 625.208 625.208 0 0 0-30.397 7.556 399.186 399.186 0 0 0-9.228 2.638z" fill="#00e35e"/></svg>